<?xml version="1.0" encoding="UTF-8" standalone="no"?>
<svg
   enable-background="new 0 0 50 50"
   height="50px"
   id="Layer_1"
   version="1.1"
   viewBox="0 0 50 50"
   width="50px"
   xml:space="preserve"
   xmlns="http://www.w3.org/2000/svg"
   xmlns:svg="http://www.w3.org/2000/svg"><defs
     id="defs18" /><rect
     fill="none"
     height="50"
     width="50"
     id="rect9" /><path
     d="M47,8c0,0-27.648,0-29,0  c-1.469,0-2.484-4-4-4H3C1.896,4,1,4.896,1,6v4v30v4c0,1.104,0.896,2,2,2h44c1.104,0,2-0.896,2-2V10C49,8.896,48.104,8,47,8z"
     fill="none"
     stroke="#000000"
     stroke-linecap="round"
     stroke-miterlimit="10"
     stroke-width="2"
     id="path11"
     style="stroke-width:2;stroke-dasharray:none;stroke:#808080;stroke-opacity:1" /><path
     d="M1,27V16  c0-1.104,0.896-2,2-2h44c1.104,0,2,0.896,2,2v11"
     fill="none"
     stroke="#000000"
     stroke-linecap="round"
     stroke-miterlimit="10"
     stroke-width="2"
     id="path13"
     style="stroke:#808080;stroke-opacity:1" /></svg>
