<?xml version="1.0" encoding="UTF-8" standalone="no"?>
<svg
   id="Layer_1"
   style="enable-background:new 0 0 48 48;"
   version="1.1"
   viewBox="0 0 48 48"
   xml:space="preserve"
   xmlns="http://www.w3.org/2000/svg"
   xmlns:svg="http://www.w3.org/2000/svg"><defs
     id="defs17" /><g
     id="g12"
     style="stroke:#cccccc;stroke-opacity:1;fill:#cccccc;fill-opacity:1"><path
       d="M37,43c0,0.6-0.4,1-1,1H12c-0.6,0-1-0.4-1-1V5c0-0.6,0.4-1,1-1h13V2H12c-1.7,0-3,1.3-3,3v38c0,1.7,1.3,3,3,3h24   c1.7,0,3-1.3,3-3V16h-2V43z"
       id="path2"
       style="stroke:#cccccc;stroke-opacity:1;fill:#cccccc;fill-opacity:1" /><polygon
       points="33,8 33,2 31,2 31,8 25,8 25,10 31,10 31,16 33,16 33,10 39,10 39,8  "
       id="polygon4"
       style="stroke:#cccccc;stroke-opacity:1;fill:#cccccc;fill-opacity:1" /><rect
       height="2"
       width="10"
       x="17"
       y="19"
       id="rect6"
       style="stroke:#cccccc;stroke-opacity:1;fill:#cccccc;fill-opacity:1" /><rect
       height="2"
       width="14"
       x="17"
       y="27"
       id="rect8"
       style="stroke:#cccccc;stroke-opacity:1;fill:#cccccc;fill-opacity:1" /><rect
       height="2"
       width="10"
       x="17"
       y="35"
       id="rect10"
       style="stroke:#cccccc;stroke-opacity:1;fill:#cccccc;fill-opacity:1" /></g></svg>
