<?xml version="1.0" encoding="UTF-8" standalone="no"?>
<svg
   viewBox="0 0 32 32"
   version="1.1"
   id="svg956"
   sodipodi:docname="open2.svg"
   inkscape:version="1.2.1 (9c6d41e410, 2022-07-14)"
   xmlns:inkscape="http://www.inkscape.org/namespaces/inkscape"
   xmlns:sodipodi="http://sodipodi.sourceforge.net/DTD/sodipodi-0.dtd"
   xmlns="http://www.w3.org/2000/svg"
   xmlns:svg="http://www.w3.org/2000/svg">
  <sodipodi:namedview
     id="namedview958"
     pagecolor="#ffffff"
     bordercolor="#666666"
     borderopacity="1.0"
     inkscape:showpageshadow="2"
     inkscape:pageopacity="0.0"
     inkscape:pagecheckerboard="0"
     inkscape:deskcolor="#d1d1d1"
     showgrid="false"
     inkscape:zoom="29.90625"
     inkscape:cx="16.016719"
     inkscape:cy="16.016719"
     inkscape:window-width="1920"
     inkscape:window-height="1137"
     inkscape:window-x="-8"
     inkscape:window-y="-8"
     inkscape:window-maximized="1"
     inkscape:current-layer="svg956" />
  <defs
     id="defs947">
    <style
       id="style945">.cls-1{fill:#101820;}</style>
  </defs>
  <title
     id="title949" />
  <path
     class="cls-1"
     d="M 4,28 A 3,3 0 0 1 1,25 V 7 A 3,3 0 0 1 4,4 h 7 a 1,1 0 0 1 0.77,0.36 L 14.8,8 H 27 a 1,1 0 0 1 0,2 H 14.33 A 1,1 0 0 1 13.57,9.64 L 10.53,6 H 4 A 1,1 0 0 0 3,7 v 18 a 1,1 0 0 0 1,1 1,1 0 0 1 0,2 z"
     id="path951"
     style="fill:#cccccc;fill-opacity:1" />
  <path
     class="cls-1"
     d="M 25.38,28 H 4 A 1,1 0 0 1 3,26.79 l 3,-14 A 1,1 0 0 1 7,12 h 23 a 1,1 0 0 1 1,1.21 L 28.32,25.63 A 3,3 0 0 1 25.38,28 Z M 5.24,26 h 20.14 a 1,1 0 0 0 1,-0.79 L 28.76,14 h -21 z"
     id="path953"
     style="fill:#cccccc;fill-opacity:1" />
</svg>
