<?xml version="1.0" encoding="UTF-8" standalone="no"?>
<svg
   height="32px"
   id="Layer_1"
   style="enable-background:new 0 0 32 32;"
   version="1.1"
   viewBox="0 0 32 32"
   width="32px"
   xml:space="preserve"
   sodipodi:docname="refresh.svg"
   inkscape:version="1.2.1 (9c6d41e410, 2022-07-14)"
   xmlns:inkscape="http://www.inkscape.org/namespaces/inkscape"
   xmlns:sodipodi="http://sodipodi.sourceforge.net/DTD/sodipodi-0.dtd"
   xmlns="http://www.w3.org/2000/svg"
   xmlns:svg="http://www.w3.org/2000/svg"><defs
     id="defs9862" /><sodipodi:namedview
     id="namedview9860"
     pagecolor="#ffffff"
     bordercolor="#666666"
     borderopacity="1.0"
     inkscape:showpageshadow="2"
     inkscape:pageopacity="0.0"
     inkscape:pagecheckerboard="0"
     inkscape:deskcolor="#d1d1d1"
     showgrid="false"
     inkscape:zoom="29.90625"
     inkscape:cx="16.016719"
     inkscape:cy="16.016719"
     inkscape:window-width="1920"
     inkscape:window-height="1137"
     inkscape:window-x="-8"
     inkscape:window-y="-8"
     inkscape:window-maximized="1"
     inkscape:current-layer="Layer_1" /><path
     d="M28,16c-1.219,0-1.797,0.859-2,1.766C25.269,21.03,22.167,26,16,26c-5.523,0-10-4.478-10-10S10.477,6,16,6  c2.24,0,4.295,0.753,5.96,2H20c-1.104,0-2,0.896-2,2s0.896,2,2,2h6c1.104,0,2-0.896,2-2V4c0-1.104-0.896-2-2-2s-2,0.896-2,2v0.518  C21.733,2.932,18.977,2,16,2C8.268,2,2,8.268,2,16s6.268,14,14,14c9.979,0,14-9.5,14-11.875C30,16.672,28.938,16,28,16z"
     id="path9857"
     style="stroke:none;stroke-opacity:1;fill:#666666;fill-opacity:1" /></svg>
